<svg width="22" height="22" viewBox="0 0 22 22" fill="none" xmlns="http://www.w3.org/2000/svg">
<path d="M11 13.75C11.7425 13.75 12.375 13.475 12.9341 12.9342C13.475 12.375 13.75 11.7425 13.75 11C13.75 10.2575 13.475 9.625 12.9341 9.06583C12.375 8.525 11.7425 8.25 11 8.25C10.2575 8.25 9.62498 8.525 9.06581 9.06583C8.52498 9.625 8.24998 10.2575 8.24998 11C8.24998 11.7425 8.52498 12.375 9.06581 12.9342C9.62498 13.475 10.2575 13.75 11 13.75ZM11 1.83333C13.5208 1.83333 15.675 2.75 17.4625 4.5375C19.25 6.325 20.1666 8.47917 20.1666 11V12.3292C20.1666 13.2458 19.8458 14.025 19.25 14.6667C18.6083 15.2808 17.875 15.5833 16.9583 15.5833C15.8583 15.5833 14.9508 15.125 14.2633 14.2083C13.3466 15.125 12.265 15.5833 11 15.5833C9.74415 15.5833 8.66248 15.125 7.75498 14.245C6.87498 13.3375 6.41665 12.265 6.41665 11C6.41665 9.74417 6.87498 8.6625 7.75498 7.755C8.66248 6.875 9.74415 6.41667 11 6.41667C12.265 6.41667 13.3375 6.875 14.245 7.755C15.125 8.6625 15.5833 9.74417 15.5833 11V12.3292C15.5833 12.705 15.73 13.035 16.005 13.3192C16.28 13.6033 16.6008 13.75 16.9583 13.75C17.3433 13.75 17.6641 13.6033 17.9391 13.3192C18.2141 13.035 18.3333 12.705 18.3333 12.3292V11C18.3333 8.9925 17.6275 7.26917 16.1791 5.82083C14.7308 4.3725 13.0075 3.66667 11 3.66667C8.99248 3.66667 7.26915 4.3725 5.82081 5.82083C4.37248 7.26917 3.66665 8.9925 3.66665 11C3.66665 13.0075 4.37248 14.7308 5.82081 16.1792C7.26915 17.6275 8.99248 18.3333 11 18.3333H15.5833V20.1667H11C8.47915 20.1667 6.32498 19.25 4.53748 17.4625C2.74998 15.675 1.83331 13.5208 1.83331 11C1.83331 8.47917 2.74998 6.325 4.53748 4.5375C6.32498 2.75 8.47915 1.83333 11 1.83333Z" fill="#737D8C"/>
</svg>
