<svg width="22" height="22" viewBox="0 0 22 22" fill="none" xmlns="http://www.w3.org/2000/svg">
<path d="M11 15.5833C9.98252 15.5833 9.16669 14.7583 9.16669 13.75C9.16669 12.7325 9.98252 11.9167 11 11.9167C11.4863 11.9167 11.9526 12.1098 12.2964 12.4536C12.6402 12.7975 12.8334 13.2638 12.8334 13.75C12.8334 14.2362 12.6402 14.7025 12.2964 15.0464C11.9526 15.3902 11.4863 15.5833 11 15.5833ZM16.5 18.3333V9.16666H5.50002V18.3333H16.5ZM16.5 7.33333C16.9863 7.33333 17.4526 7.52649 17.7964 7.8703C18.1402 8.21412 18.3334 8.68043 18.3334 9.16666V18.3333C18.3334 18.8196 18.1402 19.2859 17.7964 19.6297C17.4526 19.9735 16.9863 20.1667 16.5 20.1667H5.50002C4.48252 20.1667 3.66669 19.3417 3.66669 18.3333V9.16666C3.66669 8.14916 4.48252 7.33333 5.50002 7.33333H6.41669V5.5C6.41669 4.28442 6.89957 3.11863 7.75911 2.25909C8.61866 1.39955 9.78444 0.916664 11 0.916664C11.6019 0.916664 12.1979 1.03522 12.754 1.26555C13.3101 1.49588 13.8153 1.83349 14.2409 2.25909C14.6665 2.68469 15.0041 3.18996 15.2345 3.74603C15.4648 4.30211 15.5834 4.89811 15.5834 5.5V7.33333H16.5ZM11 2.75C10.2707 2.75 9.5712 3.03973 9.05548 3.55545C8.53975 4.07118 8.25002 4.77065 8.25002 5.5V7.33333H13.75V5.5C13.75 4.77065 13.4603 4.07118 12.9446 3.55545C12.4288 3.03973 11.7294 2.75 11 2.75Z" fill="#737D8C"/>
</svg>
