<svg width="336" height="20" viewBox="0 0 336 20" fill="none" xmlns="http://www.w3.org/2000/svg">
<rect y="11" width="140" height="1" fill="url(#paint0_linear_45_38)"/>
<path d="M168.203 11.9717C168.203 12.6309 168.118 13.2192 167.947 13.7368C167.776 14.2544 167.529 14.6914 167.207 15.0479C166.885 15.4043 166.494 15.6777 166.035 15.8682C165.581 16.0537 165.066 16.1465 164.49 16.1465C163.953 16.1465 163.459 16.0537 163.01 15.8682C162.566 15.6777 162.18 15.4043 161.853 15.0479C161.531 14.6914 161.279 14.2544 161.099 13.7368C160.923 13.2192 160.835 12.6309 160.835 11.9717C160.835 11.0928 160.984 10.3457 161.282 9.73047C161.58 9.11035 162.004 8.63916 162.556 8.31689C163.113 7.98975 163.774 7.82617 164.541 7.82617C165.273 7.82617 165.913 7.98975 166.46 8.31689C167.012 8.64404 167.439 9.11768 167.742 9.73779C168.049 10.353 168.203 11.0977 168.203 11.9717ZM162.095 11.9717C162.095 12.6162 162.18 13.1753 162.351 13.6489C162.522 14.1226 162.786 14.4888 163.142 14.7476C163.499 15.0063 163.958 15.1357 164.519 15.1357C165.076 15.1357 165.532 15.0063 165.889 14.7476C166.25 14.4888 166.516 14.1226 166.687 13.6489C166.858 13.1753 166.943 12.6162 166.943 11.9717C166.943 11.332 166.858 10.7803 166.687 10.3164C166.516 9.84766 166.252 9.48633 165.896 9.23242C165.54 8.97852 165.078 8.85156 164.512 8.85156C163.677 8.85156 163.064 9.12744 162.673 9.6792C162.288 10.231 162.095 10.9951 162.095 11.9717ZM173.953 7.82617C174.114 7.82617 174.282 7.83594 174.458 7.85547C174.634 7.87012 174.79 7.89209 174.927 7.92139L174.773 9.04932C174.641 9.01514 174.495 8.98828 174.333 8.96875C174.172 8.94922 174.021 8.93945 173.879 8.93945C173.557 8.93945 173.252 9.00537 172.964 9.13721C172.681 9.26416 172.432 9.44971 172.217 9.69385C172.002 9.93311 171.833 10.2236 171.711 10.5654C171.589 10.9023 171.528 11.2783 171.528 11.6934V16H170.305V7.97266H171.316L171.448 9.45215H171.499C171.665 9.1543 171.865 8.8833 172.1 8.63916C172.334 8.39014 172.605 8.19238 172.913 8.0459C173.225 7.89941 173.572 7.82617 173.953 7.82617Z" fill="#737D8C"/>
<rect x="196" y="11" width="140" height="1" fill="url(#paint1_linear_45_38)"/>
<defs>
<linearGradient id="paint0_linear_45_38" x1="0" y1="12" x2="140" y2="12" gradientUnits="userSpaceOnUse">
<stop stop-color="#737D8C" stop-opacity="0"/>
<stop offset="1" stop-color="#CBD1DC"/>
</linearGradient>
<linearGradient id="paint1_linear_45_38" x1="196" y1="12" x2="336" y2="12" gradientUnits="userSpaceOnUse">
<stop stop-color="#CBD1DC"/>
<stop offset="1" stop-color="#737D8C" stop-opacity="0"/>
</linearGradient>
</defs>
</svg>
